<svg width="1024" height="1024" viewBox="0 0 1024 1024" fill="none" xmlns="http://www.w3.org/2000/svg">
  <defs>
    <radialGradient id="bg" cx="0" cy="0" r="1" gradientUnits="userSpaceOnUse" gradientTransform="translate(512 512) rotate(90) scale(512)">
      <stop offset="0" stop-color="#2E6BA8"/>
      <stop offset="1" stop-color="#143D69"/>
    </radialGradient>
    <linearGradient id="ring" x1="128" y1="128" x2="896" y2="896" gradientUnits="userSpaceOnUse">
      <stop stop-color="#F1F5F9"/>
      <stop offset="0.5" stop-color="#C7D2DA"/>
      <stop offset="1" stop-color="#94A3B8"/>
    </linearGradient>
  </defs>

  <circle cx="512" cy="512" r="468" fill="url(#ring)"/>
  <circle cx="512" cy="512" r="426" fill="#0F2748"/>
  <circle cx="512" cy="512" r="388" fill="url(#bg)"/>

  <g opacity="0.28" stroke="#CFE3F8" stroke-width="2">
    <circle cx="512" cy="512" r="350"/>
    <circle cx="512" cy="512" r="320"/>
    <circle cx="512" cy="512" r="290"/>
  </g>

  <g opacity="0.45" stroke="#BFD8F4" stroke-width="3">
    <line x1="512" y1="156" x2="512" y2="868"/>
    <line x1="156" y1="512" x2="868" y2="512"/>
  </g>

  <g fill="#D7E6F7">
    <text x="512" y="208" text-anchor="middle" font-family="Arial, Helvetica, sans-serif" font-size="62" font-weight="700">N</text>
    <text x="512" y="844" text-anchor="middle" font-family="Arial, Helvetica, sans-serif" font-size="62" font-weight="700">S</text>
    <text x="198" y="528" text-anchor="middle" font-family="Arial, Helvetica, sans-serif" font-size="62" font-weight="700">W</text>
    <text x="826" y="528" text-anchor="middle" font-family="Arial, Helvetica, sans-serif" font-size="62" font-weight="700">E</text>
  </g>

  <g>
    <polygon points="512,250 552,512 512,774 472,512" fill="#E2EDF9"/>
    <polygon points="250,512 512,552 774,512 512,472" fill="#BFD8F4"/>
  </g>

  <g>
    <polygon points="512,300 560,512 512,728 484,512" fill="#FF6B7E"/>
    <polygon points="512,336 532,512 512,690 498,512" fill="#F24A5E"/>
    <polygon points="724,512 512,560 300,512 512,492" fill="#E1E7EF"/>
    <circle cx="512" cy="512" r="28" fill="#FFF3C2"/>
  </g>
</svg>
