<svg width="1200" height="1200" viewBox="0 0 1200 1200" fill="none" xmlns="http://www.w3.org/2000/svg">
  <defs>
    <radialGradient id="gBg" cx="0" cy="0" r="1" gradientUnits="userSpaceOnUse" gradientTransform="translate(600 600) rotate(90) scale(520)">
      <stop offset="0" stop-color="#123A66"/>
      <stop offset="1" stop-color="#091F36"/>
    </radialGradient>
    <linearGradient id="gRing" x1="180" y1="180" x2="1020" y2="1020" gradientUnits="userSpaceOnUse">
      <stop stop-color="#4CC9FF"/>
      <stop offset="1" stop-color="#8BE4FF"/>
    </linearGradient>
    <linearGradient id="gCore" x1="400" y1="340" x2="760" y2="860" gradientUnits="userSpaceOnUse">
      <stop stop-color="#9E363A"/>
      <stop offset="1" stop-color="#C05060"/>
    </linearGradient>
  </defs>

  <circle cx="600" cy="600" r="520" fill="url(#gBg)"/>
  <circle cx="600" cy="600" r="470" stroke="url(#gRing)" stroke-opacity="0.7" stroke-width="18"/>
  <circle cx="600" cy="600" r="390" stroke="#8BE4FF" stroke-opacity="0.22" stroke-width="3"/>
  <circle cx="600" cy="600" r="330" stroke="#8BE4FF" stroke-opacity="0.18" stroke-width="2"/>

  <g opacity="0.35" stroke="#8BE4FF" stroke-width="4">
    <line x1="600" y1="210" x2="600" y2="990"/>
    <line x1="210" y1="600" x2="990" y2="600"/>
  </g>

  <g>
    <path d="M600 250L665 600L600 950L545 600L600 250Z" fill="url(#gCore)"/>
    <path d="M250 600L600 655L950 600L600 545L250 600Z" fill="#DDEAF7" fill-opacity="0.92"/>
    <circle cx="600" cy="600" r="34" fill="#FFF1C2"/>
  </g>

  <g fill="#DDEAF7">
    <text x="600" y="182" text-anchor="middle" font-family="Arial, Helvetica, sans-serif" font-size="74" font-weight="800">T</text>
    <text x="600" y="1048" text-anchor="middle" font-family="Arial, Helvetica, sans-serif" font-size="74" font-weight="800">OS</text>
  </g>
</svg>
